<svg xmlns="http://www.w3.org/2000/svg" width="882" height="154" viewBox="0 0 882 154" role="img" aria-label="POEM &amp; TEA">
<title>POEM &amp; TEA</title>
<!-- Drawn from rectangles, not set in a typeface: a wordmark that needs a
     font renders differently wherever the font is missing. Three groups,
     three colours - 木 for POEM, 茶 for TEA, both taken from the scene. -->
<g fill="#A8703F">
  <rect x="28" y="28" width="12" height="12"/>
  <rect x="42" y="28" width="12" height="12"/>
  <rect x="56" y="28" width="12" height="12"/>
  <rect x="70" y="28" width="12" height="12"/>
  <rect x="28" y="42" width="12" height="12"/>
  <rect x="84" y="42" width="12" height="12"/>
  <rect x="28" y="56" width="12" height="12"/>
  <rect x="84" y="56" width="12" height="12"/>
  <rect x="28" y="70" width="12" height="12"/>
  <rect x="42" y="70" width="12" height="12"/>
  <rect x="56" y="70" width="12" height="12"/>
  <rect x="70" y="70" width="12" height="12"/>
  <rect x="28" y="84" width="12" height="12"/>
  <rect x="28" y="98" width="12" height="12"/>
  <rect x="28" y="112" width="12" height="12"/>
  <rect x="126" y="28" width="12" height="12"/>
  <rect x="140" y="28" width="12" height="12"/>
  <rect x="154" y="28" width="12" height="12"/>
  <rect x="112" y="42" width="12" height="12"/>
  <rect x="168" y="42" width="12" height="12"/>
  <rect x="112" y="56" width="12" height="12"/>
  <rect x="168" y="56" width="12" height="12"/>
  <rect x="112" y="70" width="12" height="12"/>
  <rect x="168" y="70" width="12" height="12"/>
  <rect x="112" y="84" width="12" height="12"/>
  <rect x="168" y="84" width="12" height="12"/>
  <rect x="112" y="98" width="12" height="12"/>
  <rect x="168" y="98" width="12" height="12"/>
  <rect x="126" y="112" width="12" height="12"/>
  <rect x="140" y="112" width="12" height="12"/>
  <rect x="154" y="112" width="12" height="12"/>
  <rect x="196" y="28" width="12" height="12"/>
  <rect x="210" y="28" width="12" height="12"/>
  <rect x="224" y="28" width="12" height="12"/>
  <rect x="238" y="28" width="12" height="12"/>
  <rect x="252" y="28" width="12" height="12"/>
  <rect x="196" y="42" width="12" height="12"/>
  <rect x="196" y="56" width="12" height="12"/>
  <rect x="196" y="70" width="12" height="12"/>
  <rect x="210" y="70" width="12" height="12"/>
  <rect x="224" y="70" width="12" height="12"/>
  <rect x="238" y="70" width="12" height="12"/>
  <rect x="196" y="84" width="12" height="12"/>
  <rect x="196" y="98" width="12" height="12"/>
  <rect x="196" y="112" width="12" height="12"/>
  <rect x="210" y="112" width="12" height="12"/>
  <rect x="224" y="112" width="12" height="12"/>
  <rect x="238" y="112" width="12" height="12"/>
  <rect x="252" y="112" width="12" height="12"/>
  <rect x="280" y="28" width="12" height="12"/>
  <rect x="336" y="28" width="12" height="12"/>
  <rect x="280" y="42" width="12" height="12"/>
  <rect x="294" y="42" width="12" height="12"/>
  <rect x="322" y="42" width="12" height="12"/>
  <rect x="336" y="42" width="12" height="12"/>
  <rect x="280" y="56" width="12" height="12"/>
  <rect x="308" y="56" width="12" height="12"/>
  <rect x="336" y="56" width="12" height="12"/>
  <rect x="280" y="70" width="12" height="12"/>
  <rect x="336" y="70" width="12" height="12"/>
  <rect x="280" y="84" width="12" height="12"/>
  <rect x="336" y="84" width="12" height="12"/>
  <rect x="280" y="98" width="12" height="12"/>
  <rect x="336" y="98" width="12" height="12"/>
  <rect x="280" y="112" width="12" height="12"/>
  <rect x="336" y="112" width="12" height="12"/>
</g>
<g fill="#8C7C6E">
  <rect x="462" y="28" width="12" height="12"/>
  <rect x="476" y="28" width="12" height="12"/>
  <rect x="448" y="42" width="12" height="12"/>
  <rect x="490" y="42" width="12" height="12"/>
  <rect x="448" y="56" width="12" height="12"/>
  <rect x="476" y="56" width="12" height="12"/>
  <rect x="462" y="70" width="12" height="12"/>
  <rect x="476" y="70" width="12" height="12"/>
  <rect x="448" y="84" width="12" height="12"/>
  <rect x="476" y="84" width="12" height="12"/>
  <rect x="504" y="84" width="12" height="12"/>
  <rect x="448" y="98" width="12" height="12"/>
  <rect x="490" y="98" width="12" height="12"/>
  <rect x="462" y="112" width="12" height="12"/>
  <rect x="476" y="112" width="12" height="12"/>
  <rect x="504" y="112" width="12" height="12"/>
</g>
<g fill="#7E9C4C">
  <rect x="616" y="28" width="12" height="12"/>
  <rect x="630" y="28" width="12" height="12"/>
  <rect x="644" y="28" width="12" height="12"/>
  <rect x="658" y="28" width="12" height="12"/>
  <rect x="672" y="28" width="12" height="12"/>
  <rect x="644" y="42" width="12" height="12"/>
  <rect x="644" y="56" width="12" height="12"/>
  <rect x="644" y="70" width="12" height="12"/>
  <rect x="644" y="84" width="12" height="12"/>
  <rect x="644" y="98" width="12" height="12"/>
  <rect x="644" y="112" width="12" height="12"/>
  <rect x="700" y="28" width="12" height="12"/>
  <rect x="714" y="28" width="12" height="12"/>
  <rect x="728" y="28" width="12" height="12"/>
  <rect x="742" y="28" width="12" height="12"/>
  <rect x="756" y="28" width="12" height="12"/>
  <rect x="700" y="42" width="12" height="12"/>
  <rect x="700" y="56" width="12" height="12"/>
  <rect x="700" y="70" width="12" height="12"/>
  <rect x="714" y="70" width="12" height="12"/>
  <rect x="728" y="70" width="12" height="12"/>
  <rect x="742" y="70" width="12" height="12"/>
  <rect x="700" y="84" width="12" height="12"/>
  <rect x="700" y="98" width="12" height="12"/>
  <rect x="700" y="112" width="12" height="12"/>
  <rect x="714" y="112" width="12" height="12"/>
  <rect x="728" y="112" width="12" height="12"/>
  <rect x="742" y="112" width="12" height="12"/>
  <rect x="756" y="112" width="12" height="12"/>
  <rect x="798" y="28" width="12" height="12"/>
  <rect x="812" y="28" width="12" height="12"/>
  <rect x="826" y="28" width="12" height="12"/>
  <rect x="784" y="42" width="12" height="12"/>
  <rect x="840" y="42" width="12" height="12"/>
  <rect x="784" y="56" width="12" height="12"/>
  <rect x="840" y="56" width="12" height="12"/>
  <rect x="784" y="70" width="12" height="12"/>
  <rect x="798" y="70" width="12" height="12"/>
  <rect x="812" y="70" width="12" height="12"/>
  <rect x="826" y="70" width="12" height="12"/>
  <rect x="840" y="70" width="12" height="12"/>
  <rect x="784" y="84" width="12" height="12"/>
  <rect x="840" y="84" width="12" height="12"/>
  <rect x="784" y="98" width="12" height="12"/>
  <rect x="840" y="98" width="12" height="12"/>
  <rect x="784" y="112" width="12" height="12"/>
  <rect x="840" y="112" width="12" height="12"/>
</g>
</svg>
