<svg xmlns="http://www.w3.org/2000/svg" width="1050" height="154" viewBox="0 0 1050 154" role="img" aria-label="TEA &amp; COFFEE">
<title>TEA &amp; COFFEE</title>
<rect x="28" y="28" width="12" height="12" fill="#C25A3E"/>
<rect x="42" y="28" width="12" height="12" fill="#C25A3E"/>
<rect x="56" y="28" width="12" height="12" fill="#C25A3E"/>
<rect x="70" y="28" width="12" height="12" fill="#C25A3E"/>
<rect x="84" y="28" width="12" height="12" fill="#C25A3E"/>
<rect x="56" y="42" width="12" height="12" fill="#C25A3E"/>
<rect x="56" y="56" width="12" height="12" fill="#C25A3E"/>
<rect x="56" y="70" width="12" height="12" fill="#C25A3E"/>
<rect x="56" y="84" width="12" height="12" fill="#C25A3E"/>
<rect x="56" y="98" width="12" height="12" fill="#C25A3E"/>
<rect x="56" y="112" width="12" height="12" fill="#C25A3E"/>
<rect x="112" y="28" width="12" height="12" fill="#C25A3E"/>
<rect x="126" y="28" width="12" height="12" fill="#C25A3E"/>
<rect x="140" y="28" width="12" height="12" fill="#C25A3E"/>
<rect x="154" y="28" width="12" height="12" fill="#C25A3E"/>
<rect x="168" y="28" width="12" height="12" fill="#C25A3E"/>
<rect x="112" y="42" width="12" height="12" fill="#C25A3E"/>
<rect x="112" y="56" width="12" height="12" fill="#C25A3E"/>
<rect x="112" y="70" width="12" height="12" fill="#C25A3E"/>
<rect x="126" y="70" width="12" height="12" fill="#C25A3E"/>
<rect x="140" y="70" width="12" height="12" fill="#C25A3E"/>
<rect x="154" y="70" width="12" height="12" fill="#C25A3E"/>
<rect x="112" y="84" width="12" height="12" fill="#C25A3E"/>
<rect x="112" y="98" width="12" height="12" fill="#C25A3E"/>
<rect x="112" y="112" width="12" height="12" fill="#C25A3E"/>
<rect x="126" y="112" width="12" height="12" fill="#C25A3E"/>
<rect x="140" y="112" width="12" height="12" fill="#C25A3E"/>
<rect x="154" y="112" width="12" height="12" fill="#C25A3E"/>
<rect x="168" y="112" width="12" height="12" fill="#C25A3E"/>
<rect x="210" y="28" width="12" height="12" fill="#C25A3E"/>
<rect x="224" y="28" width="12" height="12" fill="#C25A3E"/>
<rect x="238" y="28" width="12" height="12" fill="#C25A3E"/>
<rect x="196" y="42" width="12" height="12" fill="#C25A3E"/>
<rect x="252" y="42" width="12" height="12" fill="#C25A3E"/>
<rect x="196" y="56" width="12" height="12" fill="#C25A3E"/>
<rect x="252" y="56" width="12" height="12" fill="#C25A3E"/>
<rect x="196" y="70" width="12" height="12" fill="#C25A3E"/>
<rect x="210" y="70" width="12" height="12" fill="#C25A3E"/>
<rect x="224" y="70" width="12" height="12" fill="#C25A3E"/>
<rect x="238" y="70" width="12" height="12" fill="#C25A3E"/>
<rect x="252" y="70" width="12" height="12" fill="#C25A3E"/>
<rect x="196" y="84" width="12" height="12" fill="#C25A3E"/>
<rect x="252" y="84" width="12" height="12" fill="#C25A3E"/>
<rect x="196" y="98" width="12" height="12" fill="#C25A3E"/>
<rect x="252" y="98" width="12" height="12" fill="#C25A3E"/>
<rect x="196" y="112" width="12" height="12" fill="#C25A3E"/>
<rect x="252" y="112" width="12" height="12" fill="#C25A3E"/>
<rect x="378" y="28" width="12" height="12" fill="#8C7C6E"/>
<rect x="392" y="28" width="12" height="12" fill="#8C7C6E"/>
<rect x="364" y="42" width="12" height="12" fill="#8C7C6E"/>
<rect x="406" y="42" width="12" height="12" fill="#8C7C6E"/>
<rect x="364" y="56" width="12" height="12" fill="#8C7C6E"/>
<rect x="392" y="56" width="12" height="12" fill="#8C7C6E"/>
<rect x="378" y="70" width="12" height="12" fill="#8C7C6E"/>
<rect x="392" y="70" width="12" height="12" fill="#8C7C6E"/>
<rect x="364" y="84" width="12" height="12" fill="#8C7C6E"/>
<rect x="392" y="84" width="12" height="12" fill="#8C7C6E"/>
<rect x="420" y="84" width="12" height="12" fill="#8C7C6E"/>
<rect x="364" y="98" width="12" height="12" fill="#8C7C6E"/>
<rect x="406" y="98" width="12" height="12" fill="#8C7C6E"/>
<rect x="378" y="112" width="12" height="12" fill="#8C7C6E"/>
<rect x="392" y="112" width="12" height="12" fill="#8C7C6E"/>
<rect x="420" y="112" width="12" height="12" fill="#8C7C6E"/>
<rect x="546" y="28" width="12" height="12" fill="#A2714C"/>
<rect x="560" y="28" width="12" height="12" fill="#A2714C"/>
<rect x="574" y="28" width="12" height="12" fill="#A2714C"/>
<rect x="588" y="28" width="12" height="12" fill="#A2714C"/>
<rect x="532" y="42" width="12" height="12" fill="#A2714C"/>
<rect x="532" y="56" width="12" height="12" fill="#A2714C"/>
<rect x="532" y="70" width="12" height="12" fill="#A2714C"/>
<rect x="532" y="84" width="12" height="12" fill="#A2714C"/>
<rect x="532" y="98" width="12" height="12" fill="#A2714C"/>
<rect x="546" y="112" width="12" height="12" fill="#A2714C"/>
<rect x="560" y="112" width="12" height="12" fill="#A2714C"/>
<rect x="574" y="112" width="12" height="12" fill="#A2714C"/>
<rect x="588" y="112" width="12" height="12" fill="#A2714C"/>
<rect x="630" y="28" width="12" height="12" fill="#A2714C"/>
<rect x="644" y="28" width="12" height="12" fill="#A2714C"/>
<rect x="658" y="28" width="12" height="12" fill="#A2714C"/>
<rect x="616" y="42" width="12" height="12" fill="#A2714C"/>
<rect x="672" y="42" width="12" height="12" fill="#A2714C"/>
<rect x="616" y="56" width="12" height="12" fill="#A2714C"/>
<rect x="672" y="56" width="12" height="12" fill="#A2714C"/>
<rect x="616" y="70" width="12" height="12" fill="#A2714C"/>
<rect x="672" y="70" width="12" height="12" fill="#A2714C"/>
<rect x="616" y="84" width="12" height="12" fill="#A2714C"/>
<rect x="672" y="84" width="12" height="12" fill="#A2714C"/>
<rect x="616" y="98" width="12" height="12" fill="#A2714C"/>
<rect x="672" y="98" width="12" height="12" fill="#A2714C"/>
<rect x="630" y="112" width="12" height="12" fill="#A2714C"/>
<rect x="644" y="112" width="12" height="12" fill="#A2714C"/>
<rect x="658" y="112" width="12" height="12" fill="#A2714C"/>
<rect x="700" y="28" width="12" height="12" fill="#A2714C"/>
<rect x="714" y="28" width="12" height="12" fill="#A2714C"/>
<rect x="728" y="28" width="12" height="12" fill="#A2714C"/>
<rect x="742" y="28" width="12" height="12" fill="#A2714C"/>
<rect x="756" y="28" width="12" height="12" fill="#A2714C"/>
<rect x="700" y="42" width="12" height="12" fill="#A2714C"/>
<rect x="700" y="56" width="12" height="12" fill="#A2714C"/>
<rect x="700" y="70" width="12" height="12" fill="#A2714C"/>
<rect x="714" y="70" width="12" height="12" fill="#A2714C"/>
<rect x="728" y="70" width="12" height="12" fill="#A2714C"/>
<rect x="742" y="70" width="12" height="12" fill="#A2714C"/>
<rect x="700" y="84" width="12" height="12" fill="#A2714C"/>
<rect x="700" y="98" width="12" height="12" fill="#A2714C"/>
<rect x="700" y="112" width="12" height="12" fill="#A2714C"/>
<rect x="784" y="28" width="12" height="12" fill="#A2714C"/>
<rect x="798" y="28" width="12" height="12" fill="#A2714C"/>
<rect x="812" y="28" width="12" height="12" fill="#A2714C"/>
<rect x="826" y="28" width="12" height="12" fill="#A2714C"/>
<rect x="840" y="28" width="12" height="12" fill="#A2714C"/>
<rect x="784" y="42" width="12" height="12" fill="#A2714C"/>
<rect x="784" y="56" width="12" height="12" fill="#A2714C"/>
<rect x="784" y="70" width="12" height="12" fill="#A2714C"/>
<rect x="798" y="70" width="12" height="12" fill="#A2714C"/>
<rect x="812" y="70" width="12" height="12" fill="#A2714C"/>
<rect x="826" y="70" width="12" height="12" fill="#A2714C"/>
<rect x="784" y="84" width="12" height="12" fill="#A2714C"/>
<rect x="784" y="98" width="12" height="12" fill="#A2714C"/>
<rect x="784" y="112" width="12" height="12" fill="#A2714C"/>
<rect x="868" y="28" width="12" height="12" fill="#A2714C"/>
<rect x="882" y="28" width="12" height="12" fill="#A2714C"/>
<rect x="896" y="28" width="12" height="12" fill="#A2714C"/>
<rect x="910" y="28" width="12" height="12" fill="#A2714C"/>
<rect x="924" y="28" width="12" height="12" fill="#A2714C"/>
<rect x="868" y="42" width="12" height="12" fill="#A2714C"/>
<rect x="868" y="56" width="12" height="12" fill="#A2714C"/>
<rect x="868" y="70" width="12" height="12" fill="#A2714C"/>
<rect x="882" y="70" width="12" height="12" fill="#A2714C"/>
<rect x="896" y="70" width="12" height="12" fill="#A2714C"/>
<rect x="910" y="70" width="12" height="12" fill="#A2714C"/>
<rect x="868" y="84" width="12" height="12" fill="#A2714C"/>
<rect x="868" y="98" width="12" height="12" fill="#A2714C"/>
<rect x="868" y="112" width="12" height="12" fill="#A2714C"/>
<rect x="882" y="112" width="12" height="12" fill="#A2714C"/>
<rect x="896" y="112" width="12" height="12" fill="#A2714C"/>
<rect x="910" y="112" width="12" height="12" fill="#A2714C"/>
<rect x="924" y="112" width="12" height="12" fill="#A2714C"/>
<rect x="952" y="28" width="12" height="12" fill="#A2714C"/>
<rect x="966" y="28" width="12" height="12" fill="#A2714C"/>
<rect x="980" y="28" width="12" height="12" fill="#A2714C"/>
<rect x="994" y="28" width="12" height="12" fill="#A2714C"/>
<rect x="1008" y="28" width="12" height="12" fill="#A2714C"/>
<rect x="952" y="42" width="12" height="12" fill="#A2714C"/>
<rect x="952" y="56" width="12" height="12" fill="#A2714C"/>
<rect x="952" y="70" width="12" height="12" fill="#A2714C"/>
<rect x="966" y="70" width="12" height="12" fill="#A2714C"/>
<rect x="980" y="70" width="12" height="12" fill="#A2714C"/>
<rect x="994" y="70" width="12" height="12" fill="#A2714C"/>
<rect x="952" y="84" width="12" height="12" fill="#A2714C"/>
<rect x="952" y="98" width="12" height="12" fill="#A2714C"/>
<rect x="952" y="112" width="12" height="12" fill="#A2714C"/>
<rect x="966" y="112" width="12" height="12" fill="#A2714C"/>
<rect x="980" y="112" width="12" height="12" fill="#A2714C"/>
<rect x="994" y="112" width="12" height="12" fill="#A2714C"/>
<rect x="1008" y="112" width="12" height="12" fill="#A2714C"/>
</svg>
